<svg width="16" height="16" viewBox="0 0 16 16" fill="none" xmlns="http://www.w3.org/2000/svg">
<g clip-path="url(#clip0_16_41)">
<path d="M8.32772 1.10745C8.18531 1.07064 8.03997 1.15758 8.004 1.30026C7.96772 1.4432 8.05413 1.58826 8.19706 1.62426C8.48241 1.69654 8.70425 1.91839 8.77572 2.2032C8.80612 2.32426 8.91491 2.40479 9.03412 2.40479C9.05572 2.40479 9.07759 2.40214 9.09947 2.39679C9.2424 2.36079 9.32881 2.21598 9.29306 2.07308C9.17306 1.59786 8.80347 1.2277 8.32772 1.10745Z" fill="white"/>
<path d="M10.9333 13.3333H10.8997C11.084 13.1035 11.2 12.8222 11.2 12.5333C11.2 12.0128 10.9427 11.4832 10.6446 10.8696C10.28 10.1192 9.86668 9.26825 9.86668 8.26666C9.86668 6.91759 10.0096 6.13812 10.0806 5.83384C10.4174 5.73972 10.6667 5.43331 10.6667 5.06666C10.6667 4.62559 10.3077 4.26666 9.86668 4.26666H9.50534C10.0501 3.82641 10.4 3.15359 10.4 2.4C10.4 1.07681 9.32346 0 7.99999 0C6.67653 0 5.59999 1.07681 5.59999 2.4C5.59999 3.15359 5.94987 3.82641 6.49465 4.26666H6.13331C5.69225 4.26666 5.33331 4.62559 5.33331 5.06666C5.33331 5.50772 5.69225 5.86666 6.13331 5.86666H8.79999C8.94746 5.86666 9.06665 5.74719 9.06665 5.6C9.06665 5.45281 8.94746 5.33334 8.79999 5.33334H6.13334C5.98615 5.33334 5.86668 5.21362 5.86668 5.06669C5.86668 4.91975 5.98615 4.80003 6.13334 4.80003H9.86668C10.0139 4.80003 10.1333 4.91975 10.1333 5.06669C10.1333 5.21362 10.0139 5.33334 9.86668 5.33334C9.86296 5.33334 9.86028 5.33522 9.85656 5.33547C9.83656 5.33628 9.81815 5.34188 9.79921 5.34694C9.78428 5.35094 9.76934 5.35281 9.75574 5.35922C9.73946 5.36669 9.72668 5.37788 9.71228 5.38856C9.69868 5.39844 9.68456 5.40644 9.67334 5.41844C9.66268 5.42963 9.65599 5.44378 9.64746 5.45709C9.63681 5.47309 9.62587 5.48856 9.61865 5.50697C9.61731 5.51016 9.6149 5.51231 9.61384 5.51578C9.60237 5.55019 9.33331 6.37844 9.33331 8.26672C9.33331 9.39125 9.79437 10.3401 10.1648 11.1027C10.4341 11.6568 10.6667 12.1355 10.6667 12.5334C10.6667 12.9222 10.2555 13.3334 9.86665 13.3334H7.19999C7.05253 13.3334 6.93334 13.4528 6.93334 13.6C6.93334 13.7472 7.05253 13.8667 7.19999 13.8667H10.9333C11.3222 13.8667 11.7333 14.2779 11.7333 14.6667V15.4667H4.26665V14.6667C4.26665 14.2779 4.67784 13.8667 5.06665 13.8667H6.13331C6.28078 13.8667 6.39996 13.7472 6.39996 13.6C6.39996 13.4528 6.28078 13.3334 6.13331 13.3334C5.7445 13.3334 5.33331 12.9222 5.33331 12.5334C5.33331 12.1355 5.56584 11.6568 5.83518 11.1027C6.20559 10.3401 6.66665 9.39125 6.66665 8.26672C6.66665 7.91606 6.62265 7.36566 6.53625 6.631C6.5189 6.48459 6.38665 6.37847 6.23996 6.39741C6.09384 6.41475 5.98931 6.54728 6.00637 6.69369C6.08956 7.39741 6.13331 7.94141 6.13331 8.26675C6.13331 9.26834 5.71996 10.1193 5.35543 10.8697C5.05731 11.4833 4.79996 12.0129 4.79996 12.5334C4.79996 12.822 4.9149 13.1038 5.0989 13.3334H5.06662C4.38128 13.3334 3.73328 13.9814 3.73328 14.6668V15.7334C3.73328 15.8806 3.85246 16.0001 3.99993 16.0001H11.9999C12.1474 16.0001 12.2666 15.8806 12.2666 15.7334V14.6668C12.2667 13.9813 11.6187 13.3333 10.9333 13.3333ZM7.99999 4.26666C6.97093 4.26666 6.13334 3.42931 6.13334 2.4C6.13334 1.37069 6.97093 0.533344 7.99999 0.533344C9.02906 0.533344 9.86665 1.37069 9.86665 2.4C9.86665 3.42931 9.02906 4.26666 7.99999 4.26666Z" fill="white"/>
</g>
<defs>
<clipPath id="clip0_16_41">
<rect width="16" height="16" fill="white"/>
</clipPath>
</defs>
</svg>
